Coordinates
version=1
nRows=25
nColumns=23
inDegrees=yes

Units are S.I. units (second, meters, Newtons, ...)
If the header above contains a line with 'inDegrees', this indicates whether rotational values are in degrees (yes) or radians (no).

endheader
time	pelvis_tilt	pelvis_list	pelvis_rotation	pelvis_tx	pelvis_ty	pelvis_tz	hip_flexion_r	hip_adduction_r	hip_rotation_r	knee_angle_r	knee_angle_r_beta	ankle_angle_r	subtalar_angle_r	mtp_angle_r	hip_flexion_l	hip_adduction_l	hip_rotation_l	knee_angle_l	knee_angle_l_beta	ankle_angle_l	subtalar_angle_l	mtp_angle_l
     15.00000000	     -0.37418954	     -6.88258009	     -2.47675163	      2.36779442	      0.92276653	      1.01717426	     29.00418416	      5.04291662	    -14.05096285	     36.34154001	      0.63427953	      6.31640380	     -4.49344011	      0.00000000	     -9.41192565	     -8.48266682	     -9.55818193	     84.33719530	      1.47196174	    -15.40329750	    -21.72740298	      0.00000000
     15.00666667	     -0.88290684	     -6.59180347	     -3.12956340	      2.36493479	      0.91934134	      1.01825104	     29.25363395	      5.35734122	    -12.15270338	     39.05167646	      0.68158033	      8.06984114	     -6.66761734	      0.00000000	     -6.21156275	     -8.42885717	     -9.51549521	     88.36324432	      1.54222955	    -14.35584185	    -21.82426835	      0.00000000
     15.01333333	     -0.81121746	     -6.56361066	     -3.44865130	      2.36241347	      0.91729719	      1.01887781	     28.52035112	      5.70712844	    -10.78971850	     41.36674358	      0.72198588	     10.36413515	     -7.81711197	      0.00000000	     -3.57101675	     -8.70475188	     -9.21348358	     91.91341964	      1.60419180	    -13.42823623	    -21.86721954	      0.00000000
     15.02000000	     -0.14000084	     -6.78319984	     -3.34089284	      2.36029594	      0.91683967	      1.01894493	     26.69705567	      6.07411444	     -9.90142355	     43.03444092	      0.75109269	     12.77637328	     -8.59161434	      0.00000000	     -1.47976819	     -9.21880861	     -8.48592824	     94.96001060	      1.65736484	    -12.63788314	    -21.94793714	      0.00000000
     15.02666667	     -0.72111252	     -6.19646929	     -3.51296309	      2.35755417	      0.91504187	      1.01958900	     26.29439814	      5.74998379	     -8.62519526	     44.82638789	      0.78236806	     15.20937564	     -8.91452504	      0.00000000	      2.25998014	     -8.92018702	     -7.82055944	     97.89687417	      1.70862278	    -11.40003504	    -21.07698316	      0.00000000
     15.03333333	     -0.54196652	     -6.01282500	     -3.14446649	      2.35551593	      0.91516167	      1.01960688	     24.52203721	      5.51609571	     -8.14065110	     45.72463732	      0.79804547	     17.47916340	     -8.88145170	      0.00000000	      5.21656463	     -9.01240405	     -6.72452006	    100.24109614	      1.74953717	    -10.33614713	    -20.25492428	      0.00000000
     15.04000000	     -0.11024425	     -5.74012381	     -2.71752101	      2.35374003	      0.91649053	      1.01974388	     22.12124547	      5.28369355	     -7.52644516	     45.94761192	      0.80193711	     19.45870030	     -9.07846542	      0.00000000	      7.89005818	     -8.93107057	     -5.61044504	    101.98907758	      1.78004520	     -9.64463196	    -19.81438460	      0.00000000
     15.04666667	      0.01256694	     -5.38699706	     -1.72613994	      2.35242447	      0.91769405	      1.01917000	     19.83088302	      4.40302127	     -8.37918368	     45.91584263	      0.80138263	     21.34375720	     -7.70115521	      0.00000000	     11.09004880	     -8.66984023	     -4.01820605	    103.45936158	      1.80570650	     -8.39024230	    -18.28590743	      0.00000000
     15.05333333	      0.30453425	     -4.91332075	     -0.82283350	      2.35132378	      0.91988385	      1.01894978	     17.07619875	      3.71844679	     -8.77518438	     45.27310338	      0.79016472	     22.67578459	     -7.39903682	      0.00000000	     13.97469980	     -8.19561580	     -2.64229332	    104.31359007	      1.82061560	     -7.62810256	    -17.51475258	      0.00000000
     15.06000000	      1.04438412	     -4.51413961	      0.40878615	      2.35102801	      0.92315744	      1.01834460	     13.45036388	      2.88837364	    -10.18802309	     44.03807251	      0.76860936	     23.76015835	     -5.52158610	      0.00000000	     16.23342947	     -7.69866197	     -1.15734800	    104.60429620	      1.82568938	     -6.85879535	    -16.70866609	      0.00000000
     15.06666667	      1.58966932	     -3.90592392	      1.48054411	      2.35089641	      0.92666966	      1.01810750	      9.89343576	      2.13787309	    -11.28379912	     42.45159301	      0.74092007	     24.21969886	     -4.42125459	      0.00000000	     18.52328095	     -6.96224122	     -0.02268884	    104.41051892	      1.82230733	     -6.24577898	    -16.29220853	      0.00000000
     15.07333333	      1.78285869	     -3.13964043	      2.41490405	      2.35097710	      0.93015272	      1.01813553	      6.62080673	      1.42204372	    -12.19375045	     40.60477626	      0.70868704	     24.02378541	     -3.77867882	      0.00000000	     21.00626702	     -6.03195304	      0.77923447	    103.78850288	      1.81145110	     -5.67583110	    -16.13597369	      0.00000000
     15.08000000	      2.22848060	     -2.34638714	      3.25253232	      2.35163251	      0.93433640	      1.01830885	      2.88989764	      0.77888777	    -13.25812276	     38.38158376	      0.66988501	     23.43050876	     -2.62290592	      0.00000000	     22.89804518	     -5.14967722	      1.23639125	    102.64323547	      1.79146241	     -5.20841963	    -16.34948568	      0.00000000
     15.08666667	      2.60164145	     -1.47544304	      3.76691140	      2.35267217	      0.93877196	      1.01890996	     -0.79878335	      0.18501682	    -14.06719806	     35.97363512	      0.62785838	     22.35517179	     -1.30880506	      0.00000000	     24.55294837	     -4.33814743	      1.17431267	    101.05315221	      1.76371023	     -4.71529674	    -16.81175189	      0.00000000
     15.09333333	      2.60112312	     -0.52082646	      4.17738134	      2.35400493	      0.94305660	      1.01955873	     -4.07449950	     -0.41142651	    -14.69157327	     33.44988260	      0.58381059	     20.54888580	     -0.46780280	      0.00000000	     26.38074375	     -3.41214039	      0.86303430	     99.10672865	      1.72973873	     -4.21016160	    -17.50469046	      0.00000000
     15.10000000	      2.34645415	      0.47693448	      4.45392531	      2.35573605	      0.94729541	      1.02021797	     -7.03850687	     -1.05297275	    -15.25413842	     30.88001050	      0.53895786	     18.17309457	      0.24295034	      0.00000000	     28.21178900	     -2.48245253	      0.25741958	     96.79336750	      1.68936296	     -3.72033900	    -18.18306307	      0.00000000
     15.10666667	      1.77689040	      1.40466000	      4.45320378	      2.35774976	      0.95133758	      1.02113366	     -9.51372151	     -1.69813959	    -15.64115475	     28.42593496	      0.49612616	     15.18519178	      1.10682106	      0.00000000	     30.12693473	     -1.79420201	     -0.71675715	     94.17340631	      1.64363601	     -3.05478918	    -18.79047929	      0.00000000
     15.11333333	      1.47653439	      2.33573876	      4.60076240	      2.36018593	      0.95593690	      1.02168534	    -12.32583235	     -2.21459743	    -15.99815906	     25.75578827	      0.44952331	     11.98535568	      1.80452915	      0.00000000	     31.47785181	     -0.98690517	     -1.58688607	     91.17190513	      1.59124993	     -2.52082426	    -19.41359843	      0.00000000
     15.12000000	      1.06133821	      3.15904971	      4.64295683	      2.36287610	      0.96048551	      1.02222106	    -14.87852982	     -2.63395752	    -16.13960893	     23.17285615	      0.40444264	      8.40922465	      2.24820365	      0.00000000	     32.71398108	     -0.32094424	     -2.53160577	     87.89652372	      1.53408374	     -1.91158466	    -19.76758021	      0.00000000
     15.12666667	      0.31044671	      3.87184188	      4.63192657	      2.36552974	      0.96465243	      1.02268000	    -16.79256831	     -3.05193665	    -16.18639668	     20.98617996	      0.36627794	      4.62376830	      2.55459372	      0.00000000	     34.13585494	      0.20740349	     -3.55600676	     84.40286896	      1.47310796	     -1.24727491	    -19.67485491	      0.00000000
     15.13333333	     -0.63890695	      4.52361181	      4.74985454	      2.36816335	      0.96851245	      1.02276142	    -18.23623861	     -3.49555844	    -16.40353449	     19.28036974	      0.33650593	      0.98179778	      2.98995178	      0.00000000	     35.58859654	      0.82529348	     -4.44263288	     80.68371178	      1.40819642	     -0.58542051	    -19.13148371	      0.00000000
     15.14000000	     -1.65197401	      5.03000449	      4.90648411	      2.37063511	      0.97217555	      1.02267087	    -19.31094778	     -3.84947648	    -16.52682570	     18.06756261	      0.31533846	     -2.44407023	      3.30425605	      0.00000000	     36.92822027	      1.35123462	     -5.24211177	     76.75418563	      1.33961325	      0.04632387	    -18.15243244	      0.00000000
     15.14666667	     -2.69851624	      5.41531258	      5.16710232	      2.37291735	      0.97561378	      1.02232361	    -20.04086393	     -4.11429788	    -16.55351990	     17.43292889	      0.30426201	     -5.45874308	      3.49948568	      0.00000000	     38.12163805	      1.84405355	     -5.93361062	     72.62783155	      1.26759479	      0.65685729	    -16.71356160	      0.00000000
     15.15333333	     -3.73270530	      5.71131862	      5.52019212	      2.37484722	      0.97877348	      1.02170904	    -20.43486516	     -4.34803628	    -16.52424222	     17.48469198	      0.30516544	     -7.89256184	      3.60937272	      0.00000000	     39.13411859	      2.38391794	     -6.48455443	     68.32509764	      1.19249792	      1.21919735	    -14.85691431	      0.00000000
     15.16000000	     -4.73602344	      5.89362169	      5.94454084	      2.37642309	      0.98161814	      1.02091785	    -20.51250462	     -4.51926062	    -16.41717386	     18.21851816	      0.31797313	     -9.75643790	      3.61374356	      0.00000000	     39.93915438	      2.92872280	     -6.90122606	     63.85842500	      1.11453977	      1.61503366	    -12.83402599	      0.00000000
